HIERARCHY
ROOT mixamorig:Hips
{
	OFFSET 0.000000 201.639420 0.000000
	CHANNELS 6 Xposition Yposition Zposition Xrotation Yrotation Zrotation
	JOINT mixamorig:Spine
	{
		OFFSET 0.006200 19.524994 -2.481800
		CHANNELS 3 Xrotation Yrotation Zrotation
		JOINT mixamorig:Spine1
		{
			OFFSET -0.000900 22.835007 -2.825400
			CHANNELS 3 Xrotation Yrotation Zrotation
			JOINT mixamorig:Spine2
			{
				OFFSET -0.020600 26.552490 -3.193300
				CHANNELS 3 Xrotation Yrotation Zrotation
				JOINT mixamorig:Neck
				{
					OFFSET -0.060000 30.701813 1.352200
					CHANNELS 3 Xrotation Yrotation Zrotation
					JOINT mixamorig:Head
					{
						OFFSET -0.087200 22.547607 3.670900
						CHANNELS 3 Xrotation Yrotation Zrotation
						JOINT mixamorig:HeadTop_End
						{
							OFFSET -0.830600 40.355194 7.893500
							CHANNELS 3 Xrotation Yrotation Zrotation
							End Site
							{
								OFFSET 0.000000 30.592346 0.000000
							}
						}
						JOINT mixamorig:RightEye
						{
							OFFSET -6.302100 18.118591 16.197100
							CHANNELS 3 Xrotation Yrotation Zrotation
							End Site
							{
								OFFSET 0.000000 30.592346 0.000000
							}
						}
						JOINT mixamorig:LeftEye
						{
							OFFSET 6.741500 18.382690 16.401899
							CHANNELS 3 Xrotation Yrotation Zrotation
							End Site
							{
								OFFSET 0.000000 30.592346 0.000000
							}
						}
					}
				}
				JOINT mixamorig:LeftShoulder
				{
					OFFSET 11.924900 18.230499 1.425400
					CHANNELS 3 Xrotation Yrotation Zrotation
					JOINT mixamorig:LeftArm
					{
						OFFSET 25.435989 -0.697632 -5.229300
						CHANNELS 3 Xrotation Yrotation Zrotation
						JOINT mixamorig:LeftForeArm
						{
							OFFSET 54.684776 0.000000 0.000000
							CHANNELS 3 Xrotation Yrotation Zrotation
							JOINT mixamorig:LeftHand
							{
								OFFSET 55.098175 0.000000 0.000000
								CHANNELS 3 Xrotation Yrotation Zrotation
								JOINT mixamorig:LeftHandMiddle1
								{
									OFFSET 23.369751 0.000000 0.000000
									CHANNELS 3 Xrotation Yrotation Zrotation
									JOINT mixamorig:LeftHandMiddle2
									{
										OFFSET 6.378677 0.000000 0.000000
										CHANNELS 3 Xrotation Yrotation Zrotation
										JOINT mixamorig:LeftHandMiddle3
										{
											OFFSET 6.148331 0.000000 0.000000
											CHANNELS 3 Xrotation Yrotation Zrotation
											JOINT mixamorig:LeftHandMiddle4
											{
												OFFSET 6.582504 0.000000 0.000000
												CHANNELS 3 Xrotation Yrotation Zrotation
												End Site
												{
													OFFSET -1.168900 6.395691 1.028606
												}
											}
										}
									}
								}
								JOINT mixamorig:LeftHandThumb1
								{
									OFFSET 7.235672 -3.848206 5.434273
									CHANNELS 3 Xrotation Yrotation Zrotation
									JOINT mixamorig:LeftHandThumb2
									{
										OFFSET 6.568451 -3.792297 3.792300
										CHANNELS 3 Xrotation Yrotation Zrotation
										JOINT mixamorig:LeftHandThumb3
										{
											OFFSET 6.063080 -3.500519 3.500518
											CHANNELS 3 Xrotation Yrotation Zrotation
											JOINT mixamorig:LeftHandThumb4
											{
												OFFSET 4.793182 -2.767334 2.767349
												CHANNELS 3 Xrotation Yrotation Zrotation
												End Site
												{
													OFFSET 0.101639 6.054260 1.275483
												}
											}
										}
									}
								}
								JOINT mixamorig:LeftHandIndex1
								{
									OFFSET 23.101074 -0.309540 4.992809
									CHANNELS 3 Xrotation Yrotation Zrotation
									JOINT mixamorig:LeftHandIndex2
									{
										OFFSET 6.226883 0.000000 0.000000
										CHANNELS 3 Xrotation Yrotation Zrotation
										JOINT mixamorig:LeftHandIndex3
										{
											OFFSET 6.094330 0.000000 0.000000
											CHANNELS 3 Xrotation Yrotation Zrotation
											JOINT mixamorig:LeftHandIndex4
											{
												OFFSET 5.482605 0.000000 0.000000
												CHANNELS 3 Xrotation Yrotation Zrotation
												End Site
												{
													OFFSET -1.427902 5.233032 0.797164
												}
											}
										}
									}
								}
								JOINT mixamorig:LeftHandRing1
								{
									OFFSET 22.299240 0.021149 -3.964172
									CHANNELS 3 Xrotation Yrotation Zrotation
									JOINT mixamorig:LeftHandRing2
									{
										OFFSET 6.321869 0.000000 0.000000
										CHANNELS 3 Xrotation Yrotation Zrotation
										JOINT mixamorig:LeftHandRing3
										{
											OFFSET 5.899796 0.000000 0.000000
											CHANNELS 3 Xrotation Yrotation Zrotation
											JOINT mixamorig:LeftHandRing4
											{
												OFFSET 6.517899 0.000000 0.000000
												CHANNELS 3 Xrotation Yrotation Zrotation
												End Site
												{
													OFFSET -1.637299 6.232208 0.980890
												}
											}
										}
									}
								}
								JOINT mixamorig:LeftHandPinky1
								{
									OFFSET 20.463791 -0.302338 -8.562233
									CHANNELS 3 Xrotation Yrotation Zrotation
									JOINT mixamorig:LeftHandPinky2
									{
										OFFSET 6.908646 0.000000 0.000000
										CHANNELS 3 Xrotation Yrotation Zrotation
										JOINT mixamorig:LeftHandPinky3
										{
											OFFSET 4.622849 0.000000 0.000000
											CHANNELS 3 Xrotation Yrotation Zrotation
											JOINT mixamorig:LeftHandPinky4
											{
												OFFSET 5.216080 0.000000 0.000000
												CHANNELS 3 Xrotation Yrotation Zrotation
												End Site
												{
													OFFSET -0.606308 5.116241 0.814926
												}
											}
										}
									}
								}
							}
						}
					}
				}
				JOINT mixamorig:RightShoulder
				{
					OFFSET -12.001300 18.284088 1.348900
					CHANNELS 3 Xrotation Yrotation Zrotation
					JOINT mixamorig:RightArm
					{
						OFFSET -25.308500 -0.751312 -5.164599
						CHANNELS 3 Xrotation Yrotation Zrotation
						JOINT mixamorig:RightForeArm
						{
							OFFSET -54.684429 0.000000 0.000000
							CHANNELS 3 Xrotation Yrotation Zrotation
							JOINT mixamorig:RightHand
							{
								OFFSET -55.150291 0.000000 0.000000
								CHANNELS 3 Xrotation Yrotation Zrotation
								JOINT mixamorig:RightHandMiddle1
								{
									OFFSET -23.317566 0.000000 0.000000
									CHANNELS 3 Xrotation Yrotation Zrotation
									JOINT mixamorig:RightHandMiddle2
									{
										OFFSET -6.378403 0.000000 0.000000
										CHANNELS 3 Xrotation Yrotation Zrotation
										JOINT mixamorig:RightHandMiddle3
										{
											OFFSET -6.148193 0.000000 0.000000
											CHANNELS 3 Xrotation Yrotation Zrotation
											JOINT mixamorig:RightHandMiddle4
											{
												OFFSET -6.583389 0.000000 0.000000
												CHANNELS 3 Xrotation Yrotation Zrotation
												End Site
												{
													OFFSET 1.171692 6.395905 1.029786
												}
											}
										}
									}
								}
								JOINT mixamorig:RightHandThumb1
								{
									OFFSET -7.190521 -3.860474 5.435846
									CHANNELS 3 Xrotation Yrotation Zrotation
									JOINT mixamorig:RightHandThumb2
									{
										OFFSET -6.567429 -3.791718 3.791708
										CHANNELS 3 Xrotation Yrotation Zrotation
										JOINT mixamorig:RightHandThumb3
										{
											OFFSET -6.062469 -3.500153 3.500166
											CHANNELS 3 Xrotation Yrotation Zrotation
											JOINT mixamorig:RightHandThumb4
											{
												OFFSET -4.792618 -2.767029 2.767022
												CHANNELS 3 Xrotation Yrotation Zrotation
												End Site
												{
													OFFSET -0.100327 6.053253 1.276754
												}
											}
										}
									}
								}
								JOINT mixamorig:RightHandIndex1
								{
									OFFSET -23.048981 -0.310791 4.992554
									CHANNELS 3 Xrotation Yrotation Zrotation
									JOINT mixamorig:RightHandIndex2
									{
										OFFSET -6.227539 0.000000 0.000000
										CHANNELS 3 Xrotation Yrotation Zrotation
										JOINT mixamorig:RightHandIndex3
										{
											OFFSET -6.095047 0.000000 0.000000
											CHANNELS 3 Xrotation Yrotation Zrotation
											JOINT mixamorig:RightHandIndex4
											{
												OFFSET -5.484772 0.000000 0.000000
												CHANNELS 3 Xrotation Yrotation Zrotation
												End Site
												{
													OFFSET 1.420593 5.237305 0.797056
												}
											}
										}
									}
								}
								JOINT mixamorig:RightHandRing1
								{
									OFFSET -22.246323 0.020569 -3.963762
									CHANNELS 3 Xrotation Yrotation Zrotation
									JOINT mixamorig:RightHandRing2
									{
										OFFSET -6.322128 0.000000 0.000000
										CHANNELS 3 Xrotation Yrotation Zrotation
										JOINT mixamorig:RightHandRing3
										{
											OFFSET -5.900024 0.000000 0.000000
											CHANNELS 3 Xrotation Yrotation Zrotation
											JOINT mixamorig:RightHandRing4
											{
												OFFSET -6.518356 0.000000 0.000000
												CHANNELS 3 Xrotation Yrotation Zrotation
												End Site
												{
													OFFSET 1.636398 6.232697 0.982186
												}
											}
										}
									}
								}
								JOINT mixamorig:RightHandPinky1
								{
									OFFSET -20.411011 -0.303314 -8.561701
									CHANNELS 3 Xrotation Yrotation Zrotation
									JOINT mixamorig:RightHandPinky2
									{
										OFFSET -6.907349 0.000000 0.000000
										CHANNELS 3 Xrotation Yrotation Zrotation
										JOINT mixamorig:RightHandPinky3
										{
											OFFSET -4.623840 0.000000 0.000000
											CHANNELS 3 Xrotation Yrotation Zrotation
											JOINT mixamorig:RightHandPinky4
											{
												OFFSET -5.218353 0.000000 0.000000
												CHANNELS 3 Xrotation Yrotation Zrotation
												End Site
												{
													OFFSET 0.602097 5.118835 0.816273
												}
											}
										}
									}
								}
							}
						}
					}
				}
			}
		}
	}
	JOINT mixamorig:LeftUpLeg
	{
		OFFSET 18.168400 -13.561905 -0.039000
		CHANNELS 3 Xrotation Yrotation Zrotation
		JOINT mixamorig:LeftLeg
		{
			OFFSET 0.577358 -80.825211 -3.695000
			CHANNELS 3 Xrotation Yrotation Zrotation
			JOINT mixamorig:LeftFoot
			{
				OFFSET -0.577356 -83.370262 -6.520700
				CHANNELS 3 Xrotation Yrotation Zrotation
				JOINT mixamorig:LeftToeBase
				{
					OFFSET 0.750401 -20.798306 25.135401
					CHANNELS 3 Xrotation Yrotation Zrotation
					JOINT mixamorig:LeftToe_End
					{
						OFFSET -0.000500 0.001200 19.917799
						CHANNELS 3 Xrotation Yrotation Zrotation
						End Site
						{
							OFFSET 0.000000 19.917805 0.000000
						}
					}
				}
			}
		}
	}
	JOINT mixamorig:RightUpLeg
	{
		OFFSET -18.162500 -13.585098 -0.041000
		CHANNELS 3 Xrotation Yrotation Zrotation
		JOINT mixamorig:RightLeg
		{
			OFFSET -0.595024 -80.945297 -3.631900
			CHANNELS 3 Xrotation Yrotation Zrotation
			JOINT mixamorig:RightFoot
			{
				OFFSET 0.595024 -83.218193 -6.561200
				CHANNELS 3 Xrotation Yrotation Zrotation
				JOINT mixamorig:RightToeBase
				{
					OFFSET -0.753601 -20.807106 25.115000
					CHANNELS 3 Xrotation Yrotation Zrotation
					JOINT mixamorig:RightToe_End
					{
						OFFSET 0.000299 0.001700 19.918200
						CHANNELS 3 Xrotation Yrotation Zrotation
						End Site
						{
							OFFSET 0.000000 19.918203 0.000000
						}
					}
				}
			}
		}
	}
}
MOTION
Frames: 4
Frame Time: 0.033333
-6.665111 194.361450 -14.508121 -2.956188 -1.458874 2.036896 8.848262 2.919188 -5.017394 1.276166 0.577129 -0.622580 1.278392 0.567048 -0.629524 -6.061340 0.449846 0.950596 5.338942 4.042161 -5.183568 -0.000000 0.000000 0.000001 -0.000000 0.000000 0.000001 -0.000000 0.000000 0.000001 -0.302513 5.872715 -1.999016 -14.720688 -10.177260 -69.281006 0.000007 -33.970219 0.000021 11.041592 5.640844 -12.077332 0.069849 0.980269 -8.151111 0.078714 1.040175 -8.653156 0.076506 1.025676 -8.531524 0.000001 -0.000001 0.000000 -1.528263 3.687851 6.128910 3.939044 7.948703 0.746772 -0.579472 1.575008 2.538730 0.000003 0.000001 0.000003 0.033134 0.675971 -5.610556 0.032965 0.674430 -5.597743 0.032968 0.674425 -5.597744 0.000001 0.000000 0.000001 0.141448 1.391206 -11.609530 0.158266 1.470732 -12.283654 0.154439 1.453023 -12.133356 0.000001 0.000002 -0.000001 1.260521 5.698222 -14.444257 0.229463 -2.281931 -15.368556 0.231642 1.774434 -14.874748 0.000002 -0.000000 -0.000001 4.545744 12.838997 -7.835329 -1.611808 -3.214996 72.442537 0.000002 36.829702 -0.000013 4.215980 0.157734 15.844623 0.734450 -4.504878 10.622722 0.142206 -1.401924 11.584702 -0.321074 -1.479194 11.440326 -0.000001 0.000001 -0.000002 -1.849246 -3.581788 -6.586140 4.637205 -8.634126 -0.225392 -1.273763 0.137314 -2.094860 -0.000003 -0.000001 0.000001 0.097314 -1.161571 9.577303 0.097312 -1.161576 9.577316 0.097315 -1.161578 9.577298 0.000002 -0.000001 0.000002 1.799543 -8.681480 12.425408 0.204351 -1.676597 13.897320 -0.341221 -1.789766 13.721065 0.000001 -0.000001 -0.000000 3.082005 -12.378810 14.479212 0.252509 -1.860357 15.457599 0.252502 -1.860349 15.457620 0.000001 -0.000001 0.000001 -20.193903 6.670413 2.037063 30.576083 7.542654 -1.116735 -7.081926 0.429945 -1.192078 -0.002835 -0.000001 0.000000 -0.000000 0.000000 -0.000000 -9.522291 -16.203123 -13.809636 27.949134 -0.297617 -5.330510 -14.596603 -1.198220 15.279792 -6.790989 -0.000016 0.000001 0.000001 -0.000000 -0.000000 
-6.823359 194.350311 -15.019024 -2.752602 -1.596754 1.995858 9.099438 2.687641 -5.217500 1.319160 0.541117 -0.647414 1.321037 0.531000 -0.654035 -6.189718 0.319635 1.388033 4.813891 4.139360 -4.960469 0.000001 0.000000 0.000000 0.000001 0.000000 0.000000 0.000001 0.000000 0.000000 -0.303289 5.757662 -1.558310 -15.040905 -11.354874 -68.814798 0.000028 -34.984065 0.000037 10.923341 5.924611 -12.107133 0.069847 0.980268 -8.151110 0.078713 1.040176 -8.653155 0.076507 1.025679 -8.531530 -0.000000 0.000001 0.000003 -1.527917 3.687830 6.128571 3.939040 7.948704 0.746776 -0.579466 1.575008 2.538729 0.000003 -0.000003 0.000002 0.033133 0.675966 -5.610553 0.032966 0.674431 -5.597741 0.032970 0.674424 -5.597745 -0.000001 -0.000002 0.000000 0.141443 1.391202 -11.609533 0.158265 1.470729 -12.283657 0.154447 1.453031 -12.133358 -0.000005 0.000002 0.000000 1.260523 5.698218 -14.444257 0.229468 -2.281930 -15.368561 0.231645 1.774431 -14.874752 0.000001 -0.000002 -0.000002 4.474551 12.586655 -7.076952 -2.034118 -3.699060 71.665780 0.000003 37.327667 0.000003 5.201668 -0.404353 16.980243 0.734455 -4.504879 10.622718 0.142212 -1.401925 11.584702 -0.321080 -1.479193 11.440324 -0.000002 0.000001 -0.000000 -1.849253 -3.581792 -6.586138 4.637207 -8.634126 -0.225394 -1.273756 0.137313 -2.094863 -0.000002 0.000000 0.000001 0.097319 -1.161571 9.577301 0.097306 -1.161574 9.577313 0.097318 -1.161579 9.577298 0.000003 -0.000002 -0.000001 1.799546 -8.681480 12.425408 0.204356 -1.676599 13.897320 -0.341217 -1.789767 13.721066 -0.000001 0.000001 0.000001 3.082004 -12.378810 14.479210 0.252507 -1.860356 15.457596 0.252504 -1.860351 15.457616 -0.000002 -0.000001 0.000001 -20.572287 6.689575 2.180641 30.561675 8.113906 -1.171681 -6.866472 0.453065 -1.245276 -0.002944 0.000001 0.000000 -0.000000 0.000001 -0.000000 -9.930026 -16.007209 -13.660465 28.077694 -0.056275 -5.239666 -14.731782 -1.449036 15.008284 -6.536990 0.000003 -0.000001 0.000000 -0.000000 0.000000 
-7.025155 194.371262 -15.674000 -2.450749 -1.689097 1.904211 9.411489 2.278332 -5.220840 1.382938 0.470394 -0.649948 1.384469 0.460229 -0.655703 -6.249119 0.254875 1.642524 4.162039 4.252991 -4.829094 0.000000 -0.000001 -0.000000 0.000000 -0.000001 -0.000000 0.000000 -0.000001 -0.000000 -0.286780 5.517092 -1.049977 -15.268160 -12.037562 -68.678577 0.000004 -35.837022 -0.000002 11.709472 5.783553 -12.273251 0.069849 0.980270 -8.151112 0.078720 1.040175 -8.653156 0.076507 1.025679 -8.531523 0.000002 -0.000002 0.000003 -1.526932 3.687730 6.127615 3.939038 7.948705 0.746776 -0.579468 1.575007 2.538733 0.000001 -0.000001 0.000002 0.033134 0.675971 -5.610557 0.032969 0.674430 -5.597743 0.032970 0.674428 -5.597739 -0.000001 -0.000000 -0.000003 0.141442 1.391208 -11.609534 0.158266 1.470732 -12.283654 0.154441 1.453024 -12.133351 -0.000004 0.000000 -0.000000 1.260524 5.698224 -14.444255 0.229462 -2.281931 -15.368557 0.231643 1.774432 -14.874743 0.000000 -0.000003 -0.000002 4.475413 12.586994 -7.068373 -2.082701 -4.344688 71.668581 -0.000015 37.721373 0.000022 5.098097 -0.623502 18.104492 0.734463 -4.504878 10.622719 0.142206 -1.401925 11.584703 -0.321080 -1.479193 11.440323 -0.000005 0.000001 -0.000002 -1.849250 -3.581793 -6.586137 4.637205 -8.634128 -0.225394 -1.273769 0.137315 -2.094862 -0.000002 -0.000001 0.000000 0.097318 -1.161575 9.577307 0.097306 -1.161575 9.577317 0.097318 -1.161577 9.577301 -0.000002 -0.000000 -0.000001 1.799551 -8.681480 12.425409 0.204352 -1.676599 13.897322 -0.341227 -1.789766 13.721063 0.000001 0.000001 0.000003 3.082013 -12.378812 14.479210 0.252510 -1.860357 15.457601 0.252507 -1.860352 15.457615 0.000003 -0.000002 -0.000002 -21.088294 6.556272 2.290016 30.468217 8.944683 -1.099820 -6.531628 0.431144 -1.401533 -0.003253 0.000004 -0.000000 -0.000000 0.000000 -0.000000 -10.511443 -15.815890 -13.520528 28.285917 -0.033080 -5.094945 -14.741621 -1.507292 14.888115 -6.426580 0.000000 0.000004 -0.000000 -0.000001 -0.000000 
-7.168635 194.366318 -16.432837 -2.243763 -2.010063 1.754311 9.877836 1.884731 -5.075729 1.480809 0.401438 -0.630769 1.482164 0.390983 -0.635612 -6.263873 0.249782 1.693365 3.389063 4.322897 -4.771685 -0.000001 0.000000 0.000000 -0.000001 0.000000 0.000000 -0.000001 0.000000 0.000000 -0.254670 5.241043 -0.713299 -15.381530 -12.365547 -68.555736 0.000008 -36.496320 0.000006 12.788574 5.409116 -12.375663 0.069846 0.980264 -8.151107 0.078715 1.040171 -8.653154 0.076505 1.025675 -8.531525 -0.000002 0.000001 -0.000001 -1.525431 3.687580 6.126128 3.939045 7.948705 0.746776 -0.579472 1.575008 2.538734 0.000004 -0.000000 0.000001 0.033133 0.675966 -5.610556 0.032965 0.674433 -5.597737 0.032972 0.674421 -5.597742 -0.000003 0.000004 -0.000002 0.141447 1.391197 -11.609532 0.158270 1.470733 -12.283656 0.154442 1.453026 -12.133357 -0.000001 -0.000001 -0.000000 1.260524 5.698212 -14.444255 0.229462 -2.281931 -15.368559 0.231641 1.774433 -14.874745 0.000003 -0.000001 0.000000 4.504035 12.703033 -7.756592 -1.743799 -4.840839 72.152035 -0.000005 37.621577 0.000027 1.424811 0.415504 15.896987 0.734454 -4.504882 10.622723 0.142210 -1.401925 11.584701 -0.321081 -1.479194 11.440324 -0.000005 0.000000 -0.000003 -1.849250 -3.581795 -6.586138 4.637201 -8.634125 -0.225393 -1.273763 0.137312 -2.094855 -0.000001 0.000000 0.000001 0.097316 -1.161574 9.577307 0.097303 -1.161576 9.577318 0.097314 -1.161583 9.577303 -0.000001 -0.000001 -0.000002 1.799546 -8.681480 12.425410 0.204351 -1.676597 13.897318 -0.341217 -1.789766 13.721066 0.000000 -0.000000 -0.000002 3.082004 -12.378814 14.479210 0.252514 -1.860357 15.457599 0.252501 -1.860351 15.457620 0.000002 -0.000000 0.000001 -21.566278 6.516510 2.572325 30.458037 9.417678 -1.156755 -6.221348 0.875269 -1.453531 -0.003741 0.000005 -0.000001 -0.000000 0.000002 0.000000 -11.050259 -15.536479 -13.291686 28.494040 -0.048325 -5.080052 -14.731832 -1.406764 14.884755 -6.268109 -0.000002 -0.000003 0.000000 -0.000001 0.000000 
